<mxfile host="app.diagrams.net" modified="2024-03-29T21:33:37.526Z" agent="Mozilla/5.0 (X11; Ubuntu; Linux x86_64; rv:124.0) Gecko/20100101 Firefox/124.0" etag="t4alM-qhgCClMiYIYwML" version="24.2.1" type="device">
  <diagram name="PÃ¡gina-1" id="8D7HMTvVDjyMtqRec0C4">
    <mxGraphModel dx="928" dy="498" grid="1" gridSize="10" guides="1" tooltips="1" connect="1" arrows="1" fold="1" page="1" pageScale="1" pageWidth="827" pageHeight="1169" math="0" shadow="0">
      <root>
        <mxCell id="0" />
        <mxCell id="1" parent="0" />
        <mxCell id="GOSwUcVvDmN0QsQRMRxr-1" value="a" style="whiteSpace=wrap;html=1;aspect=fixed;fillColor=#dae8fc;strokeColor=#6c8ebf;" vertex="1" parent="1">
          <mxGeometry x="370" y="280" width="80" height="80" as="geometry" />
        </mxCell>
        <mxCell id="GOSwUcVvDmN0QsQRMRxr-13" style="edgeStyle=orthogonalEdgeStyle;rounded=0;orthogonalLoop=1;jettySize=auto;html=1;exitX=1;exitY=0.5;exitDx=0;exitDy=0;" edge="1" parent="1" source="GOSwUcVvDmN0QsQRMRxr-3">
          <mxGeometry relative="1" as="geometry">
            <mxPoint x="620" y="320" as="targetPoint" />
          </mxGeometry>
        </mxCell>
        <mxCell id="GOSwUcVvDmN0QsQRMRxr-3" value="b" style="whiteSpace=wrap;html=1;aspect=fixed;fillColor=#dae8fc;strokeColor=#6c8ebf;" vertex="1" parent="1">
          <mxGeometry x="460" y="280" width="80" height="80" as="geometry" />
        </mxCell>
        <mxCell id="GOSwUcVvDmN0QsQRMRxr-12" style="edgeStyle=orthogonalEdgeStyle;rounded=0;orthogonalLoop=1;jettySize=auto;html=1;exitX=0.5;exitY=1;exitDx=0;exitDy=0;" edge="1" parent="1" source="GOSwUcVvDmN0QsQRMRxr-4">
          <mxGeometry relative="1" as="geometry">
            <mxPoint x="410.3333333333335" y="520" as="targetPoint" />
          </mxGeometry>
        </mxCell>
        <mxCell id="GOSwUcVvDmN0QsQRMRxr-4" value="c" style="whiteSpace=wrap;html=1;aspect=fixed;fillColor=#dae8fc;strokeColor=#6c8ebf;" vertex="1" parent="1">
          <mxGeometry x="370" y="370" width="80" height="80" as="geometry" />
        </mxCell>
        <mxCell id="GOSwUcVvDmN0QsQRMRxr-11" style="edgeStyle=orthogonalEdgeStyle;rounded=0;orthogonalLoop=1;jettySize=auto;html=1;exitX=0;exitY=0.5;exitDx=0;exitDy=0;" edge="1" parent="1" source="GOSwUcVvDmN0QsQRMRxr-5">
          <mxGeometry relative="1" as="geometry">
            <mxPoint x="200" y="320.33333333333337" as="targetPoint" />
          </mxGeometry>
        </mxCell>
        <mxCell id="GOSwUcVvDmN0QsQRMRxr-5" value="d" style="whiteSpace=wrap;html=1;aspect=fixed;fillColor=#dae8fc;strokeColor=#6c8ebf;" vertex="1" parent="1">
          <mxGeometry x="280" y="280" width="80" height="80" as="geometry" />
        </mxCell>
        <mxCell id="GOSwUcVvDmN0QsQRMRxr-10" style="edgeStyle=orthogonalEdgeStyle;rounded=0;orthogonalLoop=1;jettySize=auto;html=1;exitX=0.5;exitY=0;exitDx=0;exitDy=0;" edge="1" parent="1" source="GOSwUcVvDmN0QsQRMRxr-6">
          <mxGeometry relative="1" as="geometry">
            <mxPoint x="410" y="120" as="targetPoint" />
          </mxGeometry>
        </mxCell>
        <mxCell id="GOSwUcVvDmN0QsQRMRxr-6" value="e" style="whiteSpace=wrap;html=1;aspect=fixed;fillColor=#dae8fc;strokeColor=#6c8ebf;" vertex="1" parent="1">
          <mxGeometry x="370" y="190" width="80" height="80" as="geometry" />
        </mxCell>
        <mxCell id="GOSwUcVvDmN0QsQRMRxr-7" value="" style="ellipse;whiteSpace=wrap;html=1;aspect=fixed;fillColor=#fff2cc;strokeColor=#d6b656;gradientColor=#ffd966;" vertex="1" parent="1">
          <mxGeometry x="470" y="190" width="80" height="80" as="geometry" />
        </mxCell>
        <mxCell id="GOSwUcVvDmN0QsQRMRxr-8" value="&lt;div&gt;a=1; b=0.8; c=0.8; d=0.8; e=0.8&lt;br&gt;&lt;/div&gt;&lt;div&gt;a=0.7; b=0.6; c=0.6; d=0.6; e=1&lt;br&gt;&lt;/div&gt;" style="text;html=1;align=center;verticalAlign=middle;resizable=0;points=[];autosize=1;strokeColor=none;fillColor=none;" vertex="1" parent="1">
          <mxGeometry x="666" y="223" width="190" height="40" as="geometry" />
        </mxCell>
        <mxCell id="GOSwUcVvDmN0QsQRMRxr-9" value="&lt;strike&gt;a=-0.3;&lt;/strike&gt; b=-0.2; c=-0.2; d=-0.2; e=0.2" style="text;html=1;align=center;verticalAlign=middle;resizable=0;points=[];autosize=1;strokeColor=none;fillColor=none;" vertex="1" parent="1">
          <mxGeometry x="645" y="270" width="220" height="30" as="geometry" />
        </mxCell>
      </root>
    </mxGraphModel>
  </diagram>
</mxfile>
